<svg width="90" height="29" fill="none" xmlns="http://www.w3.org/2000/svg"><path d="M25.8 20.343c-.142-.34-.274-.7-.415-1.006l-.653-1.46-.026-.027a288.838 288.838 0 00-6.212-12.667l-.088-.175c-.221-.411-.442-.866-.671-1.286-.282-.499-.556-1.033-1.006-1.54A4.67 4.67 0 0015.113.93a4.71 4.71 0 00-5.62 1.252c-.414.507-.723 1.041-1.005 1.54-.22.455-.441.9-.67 1.312l-.089.175a336.67 336.67 0 00-6.212 12.667l-.053.053c-.194.455-.423.927-.644 1.434-.141.307-.282.64-.423 1.007a5.902 5.902 0 00.853 5.833 5.994 5.994 0 002.45 1.844c.965.392 2.016.53 3.05.397a7.438 7.438 0 002.805-.962c1.148-.639 2.25-1.566 3.486-2.904 1.235 1.338 2.364 2.265 3.485 2.913a7.441 7.441 0 003.547 1.006 6.022 6.022 0 003.941-1.445 5.926 5.926 0 002.015-3.655 5.155 5.155 0 00-.23-3.062v.008zm-12.671 1.453c-1.518-1.925-2.506-3.692-2.841-5.206a4.512 4.512 0 01-.088-1.714 2.71 2.71 0 01.458-1.173c.53-.76 1.456-1.233 2.471-1.233.482-.015.96.09 1.391.303.431.214.802.53 1.08.922.229.35.397.735.45 1.18.088.508.052 1.094-.089 1.715-.335 1.488-1.323 3.272-2.832 5.206zM24.37 23.09c-.1.721-.39 1.403-.838 1.979a4.197 4.197 0 01-1.72 1.302c-.671.28-1.412.359-2.136.28a5.557 5.557 0 01-2.135-.735 13.77 13.77 0 01-3.203-2.712c1.853-2.274 2.973-4.348 3.397-6.194.203-.875.23-1.662.141-2.388a4.814 4.814 0 00-.759-1.925 4.717 4.717 0 00-1.73-1.487 4.763 4.763 0 00-2.232-.507c-1.632 0-3.088.752-3.97 1.986a4.509 4.509 0 00-.75 1.933 5.711 5.711 0 00.141 2.388c.424 1.846 1.57 3.946 3.397 6.211a12.613 12.613 0 01-3.203 2.73c-.732.42-1.43.639-2.135.726a4.226 4.226 0 01-3.086-.823 4.157 4.157 0 01-1.608-2.738c-.088-.7-.027-1.4.256-2.186.088-.28.22-.56.361-.893.195-.455.424-.927.645-1.4l.035-.06A285.184 285.184 0 019.388 5.97l.088-.175c.22-.42.441-.866.67-1.286.23-.446.477-.875.795-1.225a2.95 2.95 0 014.491 0c.309.35.565.779.794 1.225.22.42.441.875.67 1.286l.089.175a345.543 345.543 0 016.176 12.606l.027.026c.23.455.423.963.644 1.4.141.341.282.613.37.901.168.788.256 1.487.168 2.187zm12.283-1.487a4.462 4.462 0 01-1.927-.406 4.426 4.426 0 01-1.559-1.195 5.7 5.7 0 01-1.412-3.919 6.058 6.058 0 011.465-4.007 4.673 4.673 0 011.618-1.21 4.711 4.711 0 011.982-.417 3.822 3.822 0 011.852.421 3.783 3.783 0 011.413 1.259l.088-1.374h2.577v10.568h-2.586l-.088-1.54a3.975 3.975 0 01-1.473 1.351c-.6.319-1.27.48-1.95.47zm.67-2.52c.512 0 .962-.14 1.385-.393a3.29 3.29 0 00.953-1.094c.22-.446.336-.98.336-1.574a2.97 2.97 0 00-.295-1.5 3 3 0 00-1.002-1.16 2.619 2.619 0 00-2.753 0 3.29 3.29 0 00-.953 1.094 3.483 3.483 0 00-.336 1.575 2.97 2.97 0 00.295 1.499 3 3 0 001.002 1.16c.415.254.865.394 1.368.394zm9.838-11.18c0 .307-.053.587-.194.814a1.64 1.64 0 01-.59.56c-.257.14-.53.192-.813.192a1.69 1.69 0 01-.82-.192 1.618 1.618 0 01-.591-.56 1.582 1.582 0 01-.195-.814c0-.315.062-.594.195-.813.14-.263.344-.42.59-.56.257-.14.53-.201.821-.201a1.634 1.634 0 011.412.752c.129.255.192.537.185.822zm-3 13.385v-10.55h2.806v10.568h-2.814l.008-.018zm10.306-7.786v.035c-.132-.061-.309-.087-.44-.114-.177-.034-.319-.034-.486-.034-.785 0-1.377.227-1.765.7-.424.48-.618 1.154-.618 2.02v5.188h-2.814V10.729h2.585l.088 1.601c.283-.56.618-.98 1.094-1.295a2.753 2.753 0 011.597-.437c.203 0 .398.017.565.052.088.027.141.027.194.053v2.8zm1.13 7.786V6.398h2.806v5.687a4.442 4.442 0 011.411-1.207 4.464 4.464 0 012.883-.35 4.436 4.436 0 012.482 1.496 5.7 5.7 0 011.412 3.928 6.058 6.058 0 01-1.465 4.006 4.674 4.674 0 01-1.618 1.21 4.712 4.712 0 01-1.982.418 3.822 3.822 0 01-1.851-.422 3.782 3.782 0 01-1.414-1.258l-.088 1.373-2.576.027v-.018zm5.426-2.204c.503 0 .953-.14 1.377-.394a3.29 3.29 0 00.953-1.094c.229-.446.335-.98.335-1.574 0-.586-.106-1.12-.336-1.566a3.288 3.288 0 00-.952-1.094 2.619 2.619 0 00-2.753 0c-.397.28-.706.648-.962 1.094a3.483 3.483 0 00-.335 1.575 2.97 2.97 0 00.294 1.499c.227.466.573.866 1.003 1.16.414.254.864.394 1.376.394zm6.627 2.213V10.729h2.585l.088 1.373a3.482 3.482 0 011.335-1.248 3.52 3.52 0 011.789-.405 3.64 3.64 0 012.01.564c.599.38 1.072.926 1.36 1.57.31.665.477 1.488.477 2.406v6.334h-2.815v-5.966c0-.735-.168-1.312-.503-1.741-.335-.42-.794-.647-1.376-.647-.424 0-.794.087-1.121.28a2.191 2.191 0 00-.759.813c-.196.363-.293.77-.282 1.181v6.054H67.65zm11.047 0V6.39h2.814v5.686c.382-.51.878-.925 1.449-1.212a4.149 4.149 0 011.843-.441 4.46 4.46 0 011.926.406 4.424 4.424 0 011.559 1.195 5.718 5.718 0 011.403 3.919 6.05 6.05 0 01-1.465 4.007 4.673 4.673 0 01-1.618 1.21 4.71 4.71 0 01-1.982.417 3.82 3.82 0 01-1.851-.422 3.784 3.784 0 01-1.414-1.258l-.079 1.374-2.585.026zm5.453-2.213c.511 0 .961-.14 1.376-.394.397-.28.706-.647.962-1.094.22-.446.335-.98.335-1.574a2.97 2.97 0 00-.294-1.5 2.999 2.999 0 00-1.003-1.16 2.619 2.619 0 00-2.753 0 3.29 3.29 0 00-.953 1.094 3.152 3.152 0 00-.335 1.575 2.97 2.97 0 00.294 1.499c.228.466.573.866 1.003 1.16a2.5 2.5 0 001.368.394z" fill="#555"/></svg>