<svg width="123" height="27" fill="none" xmlns="http://www.w3.org/2000/svg"><g clip-path="url(#clip0_34_605)" fill="#555"><path d="M43.663 15.476l-.727 2.055h-.06a14.566 14.566 0 00-.707-2.015L38.27 5.743h-3.817V21.32h2.525v-9.612c0-.605 0-1.29-.02-2.136-.02-.423-.061-.746-.081-.988h.06c.121.605.263 1.048.364 1.33l4.686 11.365h1.777L48.41 9.814c.101-.262.202-.786.303-1.23h.06c-.06 1.149-.1 2.177-.12 2.801v9.874h2.686V5.703h-3.676l-4 9.773zm10.22-5.38h2.627v11.163h-2.626V10.096zm1.334-4.716c-.444 0-.808.162-1.11.444a1.428 1.428 0 00-.465 1.088c0 .423.161.786.464 1.068a1.56 1.56 0 001.111.423c.444 0 .828-.161 1.111-.423.303-.282.465-.645.465-1.068 0-.423-.162-.786-.465-1.088-.263-.282-.646-.444-1.11-.444zm10.604 4.615a7.39 7.39 0 00-1.474-.161c-1.192 0-2.283.262-3.191.786-.91.524-1.637 1.249-2.101 2.156-.485.927-.727 1.995-.727 3.224a5.96 5.96 0 00.707 2.881c.464.847 1.11 1.532 1.98 1.995.827.464 1.797.706 2.888.706 1.252 0 2.322-.262 3.17-.746l.02-.02v-2.418l-.1.08a4.52 4.52 0 01-1.273.665c-.464.162-.888.242-1.252.242-1.05 0-1.878-.302-2.464-.967-.606-.645-.91-1.531-.91-2.64 0-1.148.304-2.055.93-2.72.626-.665 1.454-1.008 2.464-1.008.849 0 1.717.282 2.505.847l.1.08v-2.559l-.02-.02c-.343-.141-.726-.302-1.252-.403zm8.666-.08c-.647 0-1.253.2-1.778.624-.444.363-.747.887-1.01 1.511h-.02v-1.954h-2.626v11.163h2.626v-5.702c0-.968.202-1.774.646-2.358.445-.605 1.01-.907 1.697-.907.242 0 .485.06.788.1.282.082.484.162.626.263l.1.08v-2.62l-.06-.02c-.181-.12-.545-.18-.99-.18zm7.15-.061c-1.838 0-3.313.544-4.343 1.612-1.05 1.068-1.555 2.539-1.555 4.393 0 1.733.525 3.143 1.535 4.171 1.01 1.008 2.383 1.532 4.1 1.532 1.798 0 3.232-.545 4.262-1.633 1.05-1.088 1.556-2.539 1.556-4.332 0-1.773-.485-3.184-1.475-4.212-.95-1.027-2.343-1.531-4.08-1.531zm2.1 8.584c-.484.625-1.252.927-2.201.927-.95 0-1.717-.302-2.262-.967-.546-.625-.808-1.532-.808-2.68 0-1.19.283-2.096.808-2.74.545-.646 1.292-.968 2.242-.968.929 0 1.656.302 2.181.927.525.625.808 1.532.808 2.72-.04 1.21-.262 2.157-.767 2.781zm9.312-3.708c-.828-.342-1.353-.604-1.596-.826-.202-.201-.303-.483-.303-.846 0-.302.122-.605.425-.806.303-.202.646-.302 1.151-.302.444 0 .909.08 1.353.201a3.48 3.48 0 011.172.544l.1.08v-2.458l-.06-.02a7.3 7.3 0 00-1.191-.342 8.082 8.082 0 00-1.293-.121c-1.252 0-2.283.302-3.09.967-.809.625-1.192 1.471-1.192 2.458 0 .524.08.988.262 1.37.182.383.445.746.808 1.049.364.282.889.604 1.616.906.606.262 1.07.464 1.353.625.283.161.465.343.606.484.101.16.162.362.162.624 0 .746-.566 1.109-1.717 1.109-.444 0-.909-.081-1.454-.262a5.62 5.62 0 01-1.475-.746l-.1-.08v2.559l.06.02c.384.181.848.302 1.414.443.565.1 1.07.181 1.515.181 1.353 0 2.464-.302 3.252-.967.808-.645 1.232-1.47 1.232-2.539 0-.745-.202-1.41-.647-1.914a8.193 8.193 0 00-2.363-1.39zm9.938-4.876c-1.838 0-3.313.544-4.343 1.612-1.03 1.068-1.555 2.539-1.555 4.393 0 1.733.525 3.143 1.535 4.171 1.01 1.008 2.383 1.532 4.1 1.532 1.798 0 3.232-.545 4.262-1.633 1.051-1.088 1.556-2.539 1.556-4.332 0-1.773-.485-3.184-1.475-4.212-.949-1.027-2.343-1.531-4.08-1.531zm2.08 8.584c-.484.625-1.252.927-2.201.927-.97 0-1.717-.302-2.263-.967-.545-.625-.807-1.532-.807-2.68 0-1.19.282-2.096.807-2.74.546-.646 1.293-.968 2.243-.968.908 0 1.656.302 2.181.927.525.625.808 1.532.808 2.72 0 1.21-.263 2.157-.768 2.781zm17.513-6.186v-2.156h-2.646V6.79l-.081.02-2.505.746-.06.02v2.519h-3.959v-1.41c0-.646.161-1.15.444-1.472.283-.322.707-.484 1.232-.484.364 0 .747.081 1.172.262l.101.06V4.777l-.061-.02c-.364-.121-.848-.202-1.474-.202a4.74 4.74 0 00-2.101.484 3.498 3.498 0 00-1.434 1.43c-.344.605-.525 1.29-.525 2.076v1.552h-1.838v2.136h1.838v9.027h2.646v-9.007h3.959v5.743c0 2.357 1.111 3.546 3.332 3.546.364 0 .748-.06 1.111-.12.384-.081.667-.182.828-.262l.021-.02v-2.157l-.101.08a1.696 1.696 0 01-.546.243c-.202.06-.384.08-.525.08-.525 0-.889-.12-1.151-.423-.243-.282-.364-.745-.364-1.43v-5.28h2.687zM.6.503h12.382v12.353H.6V.503zm13.674 0h12.382v12.353H14.274V.503zM.6 14.145h12.382v12.353H.6V14.145zm13.674 0h12.382v12.353H14.274V14.145z"/></g><defs><clipPath id="clip0_34_605"><path fill="#fff" transform="translate(.6 .503)" d="M0 0h122v25.995H0z"/></clipPath></defs></svg>