<svg width="80" height="25" fill="none" xmlns="http://www.w3.org/2000/svg"><g clip-path="url(#clip0_34_614)" fill="#555"><path d="M59.49 23.78l6.673-7.388-6.672-7.388h7.04l3.304 3.588 3.181-3.588h6.794l-6.64 7.358 6.731 7.418h-7.068l-3.274-3.618-3.244 3.618h-6.824z"/><path d="M59.49 5.691h-7.555v3.312h7.556v4.992h-7.556v4.583h7.556v5.202H46.38V.503h13.11v5.188zM40.85.503v9.526h-.06c-1.225-1.387-2.754-1.869-4.53-1.869-3.635 0-6.374 2.436-7.335 5.657-1.097-3.549-3.924-5.723-8.117-5.723-3.405 0-6.093 1.506-7.496 3.96v-3.05H6.274V5.692h7.68V.503H0V23.78h6.274v-9.785h6.253a9.15 9.15 0 00-.286 2.3c0 4.856 3.764 8.263 8.567 8.263 4.04 0 6.701-1.868 8.11-5.276H23.54c-.727 1.024-1.279 1.328-2.733 1.328-1.686 0-3.14-1.45-3.14-3.168h10.948c.475 3.857 3.523 7.183 7.707 7.183a5.38 5.38 0 004.467-2.352h.06v1.507h5.531V.503h-5.53zM17.844 14.065c.35-1.478 1.513-2.445 2.965-2.445 1.6 0 2.704.937 2.994 2.445h-5.959zm19.652 6.17c-2.04 0-3.306-1.871-3.306-3.826 0-2.089 1.102-4.098 3.306-4.098 2.284 0 3.195 2.01 3.195 4.098 0 1.982-.965 3.827-3.195 3.827z"/></g><defs><clipPath id="clip0_34_614"><path fill="#fff" transform="translate(0 .503)" d="M0 0h80v23.995H0z"/></clipPath></defs></svg>