<svg width="85" height="25" fill="none" xmlns="http://www.w3.org/2000/svg"><g clip-path="url(#clip0_34_587)" fill="#555"><path d="M9.297 4.476v6.768H3.128V4.476H.2v16.157h2.928v-6.549h6.169v6.549h2.928V4.476H9.297zm12.3 10.934a2.45 2.45 0 01-.71 1.725 2.413 2.413 0 01-3.425 0 2.451 2.451 0 01-.71-1.726V8.49h-2.778v6.92c0 1.389.547 2.72 1.522 3.702a5.176 5.176 0 003.674 1.534 5.175 5.175 0 003.673-1.534 5.256 5.256 0 001.522-3.702V8.49h-2.768v6.92zm20.581-6.207c0-1.419.932-1.869 1.952-1.869.822 0 1.908.63 2.618 1.396l1.82-2.16c-.908-1.238-2.75-2.094-4.259-2.094-3.013 0-5.192 1.778-5.192 4.727 0 5.47 6.634 3.734 6.634 6.795 0 .945-.91 1.779-1.951 1.779-1.643 0-2.175-.81-2.93-1.666l-2.019 2.116c1.291 1.597 2.884 2.409 4.793 2.409 2.862 0 5.165-1.8 5.165-4.614 0-6.073-6.635-4.186-6.635-6.82m41.049 8.848c-1.642 0-2.108-.715-2.108-1.811v-4.851h2.551V8.93h-2.551V5.687L78.299 6.96v9.882c0 2.527 1.73 3.801 4.103 3.801.372.007.744-.023 1.11-.09l.688-2.549c-.31.022-.666.044-.977.044M32.17 8.57c-1.375 0-2.335.403-3.264 1.32V4.574h-2.782v9.857c0 3.69 2.648 6.217 5.622 6.217 3.3 0 6.203-2.572 6.203-6.037 0-3.42-2.672-6.038-5.778-6.038v-.001zm-.017 9.256a3.14 3.14 0 01-1.753-.536 3.176 3.176 0 01-1.163-1.428 3.203 3.203 0 01.684-3.466 3.134 3.134 0 013.44-.69 3.16 3.16 0 011.417 1.172 3.199 3.199 0 01-.393 4.016 3.144 3.144 0 01-2.232.932zm30.227-3.364c0-3.47-2.898-6.037-6.204-6.037-2.974 0-5.621 2.528-5.621 6.218v9.862h2.782V19.18c.927.917 1.888 1.32 3.263 1.32 3.106 0 5.778-2.616 5.778-6.038h.001zm-2.635-.035c0 .63-.185 1.245-.532 1.768-.347.523-.84.93-1.417 1.171a3.133 3.133 0 01-3.44-.69 3.204 3.204 0 01-.684-3.467 3.175 3.175 0 011.163-1.427 3.14 3.14 0 013.985.396c.592.596.925 1.406.925 2.25z"/><path d="M71.367 8.29V5.472c.37-.174.682-.45.902-.796a2.19 2.19 0 00.34-1.16v-.064a2.18 2.18 0 00-.631-1.534 2.144 2.144 0 00-1.522-.635h-.065c-.57 0-1.118.228-1.522.635a2.18 2.18 0 00-.63 1.534v.065c.002.41.12.813.34 1.159.22.346.532.622.901.796v2.816a6.072 6.072 0 00-2.898 1.286l-7.665-6.017a2.44 2.44 0 00.086-.608 2.453 2.453 0 00-.406-1.359 2.429 2.429 0 00-1.087-.9 2.407 2.407 0 00-2.644.526 2.46 2.46 0 00-.53 2.663c.184.446.494.828.893 1.097.398.27.867.413 1.346.414.42-.002.831-.115 1.194-.327l7.549 5.918a6.196 6.196 0 00.093 6.94l-2.296 2.314a1.96 1.96 0 00-.574-.094 1.98 1.98 0 00-1.105.339c-.328.22-.583.534-.733.9a2.021 2.021 0 00.432 2.187 1.987 1.987 0 002.17.436 2.006 2.006 0 001.229-1.854 1.995 1.995 0 00-.093-.578l2.272-2.289a6.077 6.077 0 005.284 1.08 6.108 6.108 0 002.45-1.297 6.17 6.17 0 001.632-2.251 6.214 6.214 0 00-.282-5.426 6.155 6.155 0 00-1.859-2.067 6.097 6.097 0 00-2.571-1.03zm-.941 9.262a3.125 3.125 0 01-1.745-.535 3.161 3.161 0 01-1.156-1.421 3.19 3.19 0 01.682-3.45 3.12 3.12 0 013.424-.686c.574.24 1.064.645 1.41 1.165a3.185 3.185 0 01-.39 3.998 3.13 3.13 0 01-2.222.927"/></g><defs><clipPath id="clip0_34_587"><path fill="#fff" transform="translate(.2 .503)" d="M0 0h84v23.995H0z"/></clipPath></defs></svg>