<svg width="112" height="27" fill="none" xmlns="http://www.w3.org/2000/svg"><g clip-path="url(#clip0_34_611)" fill="#555"><path d="M40.302 9.749v1.473h.045c.53-.789 1.41-1.717 3.361-1.717 1.518 0 2.683.772 3.181 1.939h.045c.427-.59.915-1.037 1.463-1.353.648-.375 1.369-.59 2.277-.59 2.055 0 3.874 1.337 3.874 4.707v6.391h-3.133v-5.945c0-1.708-.617-2.695-1.899-2.695-.939 0-1.622.593-1.881 1.323-.09.251-.132.593-.132.88v6.44H44.37v-6.189c0-1.45-.592-2.457-1.857-2.457-1.012 0-1.646.75-1.906 1.391-.111.274-.146.59-.146.887v6.365h-3.136V9.749h2.977zm30.416 0v2.047h.086c.575-1.565 1.94-2.291 3.14-2.291.301 0 .468.022.71.068v2.842c-.287-.04-.554-.078-.929-.078-1.358 0-2.304.743-2.543 1.906-.052.242-.07.502-.07.802v5.557h-3.215V9.75h2.82zm8.302-3.595V9.57h2.717v2.764h-2.716v4.077c0 1.32.356 1.959 1.417 1.959.499 0 .866-.059 1.185-.134l.042 2.291c-.427.15-1.335.313-2.256.313-1.085 0-1.99-.355-2.54-.906-.631-.629-.922-1.659-.922-3.126V6.154h3.073zM35.142 20.599h-3.119V6.154h3.119v14.445zm-8.317-3.875c0 .199-.017.407-.076.586-.243.753-1.071 1.389-2.104 1.389-.863 0-1.549-.46-1.549-1.434 0-1.49 1.747-1.904 3.732-1.894v1.353h-.003zm3.115-2.598c0-2.46-1.116-4.621-4.89-4.621-1.937 0-3.475.511-4.314.967l.614 1.976c.765-.457 1.989-.832 3.146-.832 1.917-.003 2.228 1.02 2.228 1.676v.156c-4.175-.006-6.813 1.353-6.813 4.123 0 1.692 1.342 3.276 3.677 3.276 1.438 0 2.637-.538 3.358-1.402h.07s.478 1.874 3.105 1.157c-.14-.782-.184-1.613-.184-2.614v-3.862h.003zM4.244 6.154c.323 1.529 1.238 5.968 1.238 5.968.384 1.825.738 3.738 1.005 5.25h.048c.26-1.606.669-3.129 1.106-5.012l1.542-6.206h3.413l1.442 6.365c.377 1.77.679 3.136.918 4.782h.045c.26-1.663.6-3.084.97-4.902l1.387-6.245h3.274l-4.058 14.445c-2.585.531-3.576-.447-3.93-1.998-.353-1.555-1.046-4.51-1.046-4.51-.357-1.62-.634-2.761-.828-4.423h-.049c-.277 1.645-.568 2.8-.998 4.419l-1.701 6.515c-2.64.496-3.556-.238-4.062-2.23C3.524 16.669.8 6.158.8 6.158h3.444v-.003zM62.7 16.724c0 .199-.018.407-.077.586-.242.753-1.07 1.389-2.103 1.389-.863 0-1.55-.46-1.55-1.434 0-1.49 1.747-1.904 3.733-1.894v1.353H62.7zm3.115-2.598c0-2.46-1.116-4.621-4.89-4.621-1.937 0-3.475.511-4.314.967l.613 1.976c.766-.457 1.99-.832 3.147-.832 1.913-.003 2.228 1.02 2.228 1.676v.156c-4.172-.006-6.81 1.353-6.81 4.123 0 1.692 1.345 3.276 3.677 3.276 1.435 0 2.637-.538 3.355-1.402h.073s.478 1.874 3.105 1.157c-.139-.782-.184-1.613-.184-2.614v-3.862zm28.565 1.498c.308.528.287 1.116-.041 1.385l-5.672 3.918c-.59.336-1.475-.072-1.976-.926-.504-.858-.415-1.814.176-2.151l6.28-2.88c.394-.15.926.127 1.233.654zm7.465 0c.311-.527.839-.8 1.233-.657l6.283 2.88c.591.336.677 1.293.176 2.15-.504.855-1.392 1.26-1.979.926l-5.672-3.917c-.325-.266-.349-.858-.041-1.382zm-3.734 2.124c.618 0 1.126.313 1.195.725l.611 6.8c0 .673-.798 1.225-1.803 1.225-1.002 0-1.803-.552-1.803-1.226l.608-6.8c.07-.411.577-.724 1.192-.724zm3.775-7.753l5.672-3.92c.587-.338 1.475.067 1.979.925.501.858.415 1.814-.176 2.15l-6.283 2.884c-.394.143-.926-.13-1.233-.657-.308-.528-.284-1.117.041-1.382zm-8.74 2.039L86.868 9.15c-.587-.337-.677-1.293-.176-2.151.5-.858 1.388-1.263 1.976-.926l5.672 3.921c.328.262.349.854.041 1.382-.307.527-.84.8-1.233.657zm3.773-3.506l-.608-6.8c0-.674.798-1.225 1.803-1.225s1.803.551 1.803 1.225l-.611 6.8c-.07.409-.577.725-1.195.725-.615 0-1.123-.316-1.192-.725zM111.071 20.9v-.17h.155c.052 0 .087.034.087.085a.083.083 0 01-.087.085h-.155zm-.128.31c0 .017.014.034.035.034h.065c.018 0 .035-.017.035-.034v-.194h.107l.086.204c.007.014.018.024.031.024h.08a.034.034 0 00.031-.048c-.031-.06-.062-.126-.093-.19a.188.188 0 00.131-.19c0-.13-.107-.205-.214-.205h-.259c-.018 0-.035.017-.035.034v.565zm-.28-.282c0-.276.228-.5.508-.5s.508.22.508.5c0 .275-.225.5-.508.5a.503.503 0 01-.508-.5zm-.12 0c0 .34.279.619.628.619.346 0 .629-.28.629-.62a.626.626 0 00-.629-.619.623.623 0 00-.628.62z"/></g><defs><clipPath id="clip0_34_611"><path fill="#fff" transform="translate(.8 .503)" d="M0 0h111v25.995H0z"/></clipPath></defs></svg>