<svg width="85" height="29" fill="none" xmlns="http://www.w3.org/2000/svg"><g clip-path="url(#clip0_34_598)" fill="#555"><path d="M36.146 14.86c0 3.885-3.085 6.748-6.871 6.748-3.786 0-6.871-2.863-6.871-6.749 0-3.913 3.085-6.749 6.87-6.749 3.787 0 6.872 2.836 6.872 6.75zm-3.008 0c0-2.429-1.788-4.09-3.863-4.09s-3.863 1.661-3.863 4.09c0 2.403 1.788 4.089 3.863 4.089s3.863-1.689 3.863-4.09zm17.832 0c0 3.885-3.085 6.748-6.872 6.748-3.786 0-6.87-2.863-6.87-6.749 0-3.91 3.084-6.749 6.87-6.749 3.787 0 6.872 2.836 6.872 6.75zm-3.008 0c0-2.429-1.788-4.09-3.864-4.09-2.075 0-3.863 1.661-3.863 4.09 0 2.403 1.788 4.089 3.863 4.089 2.076 0 3.864-1.689 3.864-4.09zm17.214-6.342v12.117c0 4.984-2.984 7.02-6.51 7.02-3.32 0-5.318-2.188-6.072-3.978l2.619-1.074c.466 1.099 1.609 2.395 3.45 2.395 2.257 0 3.656-1.372 3.656-3.956v-.97h-.105c-.673.818-1.97 1.533-3.607 1.533-3.425 0-6.563-2.94-6.563-6.721 0-3.81 3.138-6.774 6.563-6.774 1.634 0 2.93.715 3.607 1.51h.105v-1.1h2.857v-.003zm-2.644 6.366c0-2.377-1.609-4.114-3.656-4.114-2.076 0-3.814 1.737-3.814 4.114 0 2.352 1.738 4.065 3.814 4.065 2.047 0 3.656-1.713 3.656-4.065zm7.353-13.468v19.779h-2.934V1.416h2.934zM81.318 17.08l2.335 1.534c-.754 1.099-2.57 2.991-5.707 2.991-3.892 0-6.798-2.963-6.798-6.749 0-4.013 2.931-6.749 6.461-6.749 3.555 0 5.293 2.787 5.861 4.294l.312.767-9.156 3.736c.7 1.354 1.79 2.045 3.32 2.045 1.531 0 2.594-.743 3.372-1.868zm-7.186-2.428l6.12-2.504c-.336-.843-1.35-1.43-2.541-1.43-1.529 0-3.657 1.33-3.58 3.934zm-62.834-1.548V10.24h9.793c.096.5.145 1.09.145 1.729 0 2.148-.596 4.804-2.517 6.697-1.868 1.917-4.255 2.94-7.418 2.94-5.861 0-10.79-4.705-10.79-10.48C.511 5.35 5.44.646 11.301.646c3.243 0 5.553 1.254 7.289 2.888l-2.05 2.02c-1.245-1.15-2.932-2.045-5.242-2.045a7.572 7.572 0 00-7.628 7.617 7.572 7.572 0 007.628 7.616c2.777 0 4.358-1.099 5.37-2.097.822-.809 1.363-1.965 1.576-3.544l-6.946.003z"/></g><defs><clipPath id="clip0_34_598"><path fill="#fff" transform="translate(.4 .503)" d="M0 0h84v27.994H0z"/></clipPath></defs></svg>