<svg width="14" height="11" viewBox="0 0 14 11" fill="none" xmlns="http://www.w3.org/2000/svg">
<path d="M13.4186 1.43827C12.9412 1.64767 12.4325 1.78648 11.9022 1.85387C12.4478 1.52813 12.8642 1.01625 13.0599 0.399258C12.5513 0.702537 11.9896 0.916757 11.3911 1.0363C10.9081 0.522014 10.2197 0.203491 9.46873 0.203491C8.01171 0.203491 6.83871 1.38612 6.83871 2.83592C6.83871 3.04452 6.85637 3.2451 6.89969 3.43605C4.71175 3.32935 2.77575 2.28071 1.47518 0.683281C1.24812 1.07722 1.11494 1.52813 1.11494 2.01353C1.11494 2.92497 1.5843 3.73291 2.28392 4.20067C1.8611 4.19265 1.4463 4.06989 1.09488 3.87653C1.09488 3.88455 1.09488 3.89498 1.09488 3.90541C1.09488 5.18432 2.00712 6.2466 3.20338 6.4913C2.98916 6.54987 2.75569 6.57796 2.51339 6.57796C2.3449 6.57796 2.17481 6.56833 2.01514 6.53303C2.35613 7.57524 3.32373 8.34146 4.47427 8.36633C3.57887 9.06676 2.44198 9.48879 1.21121 9.48879C0.99539 9.48879 0.78839 9.47916 0.58139 9.45268C1.74717 10.2045 3.12877 10.6337 4.61868 10.6337C9.46151 10.6337 12.1092 6.62208 12.1092 3.14481C12.1092 3.02847 12.1052 2.91615 12.0996 2.80463C12.6219 2.43395 13.0607 1.97101 13.4186 1.43827Z" fill="#402F2C"/>
</svg>
